HIERARCHY
ROOT Character1_Hips
{
  OFFSET 0.00187457 15.1741 -0.0195921
  CHANNELS 6 Xposition Yposition Zposition Zrotation Xrotation Yrotation
  JOINT Character1_LeftUpLeg
  {
    OFFSET 1.33984 -0.942852 0
    CHANNELS 6 Xposition Yposition Zposition Zrotation Xrotation Yrotation
    JOINT Character1_LeftLeg
    {
      OFFSET 1.03111 -5.48941 0.514163
      CHANNELS 6 Xposition Yposition Zposition Zrotation Xrotation Yrotation
      JOINT Character1_LeftFoot
      {
        OFFSET 0.584472 -7.37542 -1.61389
        CHANNELS 6 Xposition Yposition Zposition Zrotation Xrotation Yrotation
        JOINT Character1_LeftToeBase
        {
          OFFSET 0.308451 -0.815751 3.43202
          CHANNELS 6 Xposition Yposition Zposition Zrotation Xrotation Yrotation
          End Site
          {
            OFFSET 0 0 0
          }
        }
      }
    }
  }
  JOINT Character1_RightUpLeg
  {
    OFFSET -1.33984 -0.94285 0
    CHANNELS 6 Xposition Yposition Zposition Zrotation Xrotation Yrotation
    JOINT Character1_RightLeg
    {
      OFFSET -1.03111 -5.48942 0.514163
      CHANNELS 6 Xposition Yposition Zposition Zrotation Xrotation Yrotation
      JOINT Character1_RightFoot
      {
        OFFSET -0.584472 -7.37543 -1.61389
        CHANNELS 6 Xposition Yposition Zposition Zrotation Xrotation Yrotation
        JOINT Character1_RightToeBase
        {
          OFFSET -0.308451 -0.815751 3.43202
          CHANNELS 6 Xposition Yposition Zposition Zrotation Xrotation Yrotation
          End Site
          {
            OFFSET 0 0 0
          }
        }
      }
    }
  }
  JOINT Character1_Spine
  {
    OFFSET 0 1.05262 0
    CHANNELS 6 Xposition Yposition Zposition Zrotation Xrotation Yrotation
    JOINT Character1_Spine1
    {
      OFFSET 0 2.01813 0
      CHANNELS 6 Xposition Yposition Zposition Zrotation Xrotation Yrotation
      JOINT Character1_Spine2
      {
        OFFSET 0 2.01813 0
        CHANNELS 6 Xposition Yposition Zposition Zrotation Xrotation Yrotation
        JOINT Character1_LeftShoulder
        {
          OFFSET 1.05262 2.25701 0
          CHANNELS 6 Xposition Yposition Zposition Zrotation Xrotation Yrotation
          JOINT Character1_LeftArm
          {
            OFFSET 1.59242 -0.163555 -0.172858
            CHANNELS 6 Xposition Yposition Zposition Zrotation Xrotation Yrotation
            JOINT Character1_LeftForeArm
            {
              OFFSET 4.24538 -1.87799 -0.325344
              CHANNELS 6 Xposition Yposition Zposition Zrotation Xrotation Yrotation
              JOINT Character1_LeftHand
              {
                OFFSET 2.98616 -1.3058 0.326134
                CHANNELS 6 Xposition Yposition Zposition Zrotation Xrotation Yrotation
                JOINT Character1_LeftHandThumb1
                {
                  OFFSET 0.707167 -0.296377 0.777354
                  CHANNELS 6 Xposition Yposition Zposition Zrotation Xrotation Yrotation
                  JOINT Character1_LeftHandThumb2
                  {
                    OFFSET 0.248522 -0.159515 0.33158
                    CHANNELS 6 Xposition Yposition Zposition Zrotation Xrotation Yrotation
                    JOINT Character1_LeftHandThumb3
                    {
                      OFFSET 0.259194 -0.254061 0.227961
                      CHANNELS 6 Xposition Yposition Zposition Zrotation Xrotation Yrotation
                      JOINT Character1_LeftHandThumb4
                      {
                        OFFSET 0.226666 -0.258213 0.206783
                        CHANNELS 6 Xposition Yposition Zposition Zrotation Xrotation Yrotation
                        End Site
                        {
                          OFFSET 0 0 0
                        }
                      }
                    }
                  }
                }
                JOINT Character1_LeftHandIndex1
                {
                  OFFSET 1.48444 -0.354189 0.611987
                  CHANNELS 6 Xposition Yposition Zposition Zrotation Xrotation Yrotation
                  JOINT Character1_LeftHandIndex2
                  {
                    OFFSET 0.504725 -0.451988 0.0493912
                    CHANNELS 6 Xposition Yposition Zposition Zrotation Xrotation Yrotation
                    JOINT Character1_LeftHandIndex3
                    {
                      OFFSET 0.296442 -0.265512 0.0299125
                      CHANNELS 6 Xposition Yposition Zposition Zrotation Xrotation Yrotation
                      JOINT Character1_LeftHandIndex4
                      {
                        OFFSET 0.197651 -0.217278 0.0208597
                        CHANNELS 6 Xposition Yposition Zposition Zrotation Xrotation Yrotation
                        End Site
                        {
                          OFFSET 0 0 0
                        }
                      }
                    }
                  }
                }
                JOINT Character1_LeftHandMiddle1
                {
                  OFFSET 1.48537 -0.317031 0.212679
                  CHANNELS 6 Xposition Yposition Zposition Zrotation Xrotation Yrotation
                  JOINT Character1_LeftHandMiddle2
                  {
                    OFFSET 0.67206 -0.620936 0.0176344
                    CHANNELS 6 Xposition Yposition Zposition Zrotation Xrotation Yrotation
                    JOINT Character1_LeftHandMiddle3
                    {
                      OFFSET 0.264033 -0.321119 0.0088426
                      CHANNELS 6 Xposition Yposition Zposition Zrotation Xrotation Yrotation
                      JOINT Character1_LeftHandMiddle4
                      {
                        OFFSET 0.180854 -0.241264 0.00658413
                        CHANNELS 6 Xposition Yposition Zposition Zrotation Xrotation Yrotation
                        End Site
                        {
                          OFFSET 0 0 0
                        }
                      }
                    }
                  }
                }
                JOINT Character1_LeftHandRing1
                {
                  OFFSET 1.48599 -0.345215 -0.172738
                  CHANNELS 6 Xposition Yposition Zposition Zrotation Xrotation Yrotation
                  JOINT Character1_LeftHandRing2
                  {
                    OFFSET 0.522196 -0.611354 0.0123876
                    CHANNELS 6 Xposition Yposition Zposition Zrotation Xrotation Yrotation
                    JOINT Character1_LeftHandRing3
                    {
                      OFFSET 0.273492 -0.359549 0.00739122
                      CHANNELS 6 Xposition Yposition Zposition Zrotation Xrotation Yrotation
                      JOINT Character1_LeftHandRing4
                      {
                        OFFSET 0.175075 -0.230164 0.0047313
                        CHANNELS 6 Xposition Yposition Zposition Zrotation Xrotation Yrotation
                        End Site
                        {
                          OFFSET 0 0 0
                        }
                      }
                    }
                  }
                }
                JOINT Character1_LeftHandPinky1
                {
                  OFFSET 1.45006 -0.450851 -0.482264
                  CHANNELS 6 Xposition Yposition Zposition Zrotation Xrotation Yrotation
                  JOINT Character1_LeftHandPinky2
                  {
                    OFFSET 0.289755 -0.353117 -0.0298235
                    CHANNELS 6 Xposition Yposition Zposition Zrotation Xrotation Yrotation
                    JOINT Character1_LeftHandPinky3
                    {
                      OFFSET 0.271225 -0.36969 -0.028032
                      CHANNELS 6 Xposition Yposition Zposition Zrotation Xrotation Yrotation
                      JOINT Character1_LeftHandPinky4
                      {
                        OFFSET 0.192971 -0.263027 -0.019944
                        CHANNELS 6 Xposition Yposition Zposition Zrotation Xrotation Yrotation
                        End Site
                        {
                          OFFSET 0 0 0
                        }
                      }
                    }
                  }
                }
              }
            }
          }
        }
        JOINT Character1_RightShoulder
        {
          OFFSET -1.05263 2.257 0
          CHANNELS 6 Xposition Yposition Zposition Zrotation Xrotation Yrotation
          JOINT Character1_RightArm
          {
            OFFSET -1.59242 -0.163551 -0.172859
            CHANNELS 6 Xposition Yposition Zposition Zrotation Xrotation Yrotation
            JOINT Character1_RightForeArm
            {
              OFFSET -4.24536 -1.87803 -0.325341
              CHANNELS 6 Xposition Yposition Zposition Zrotation Xrotation Yrotation
              JOINT Character1_RightHand
              {
                OFFSET -2.98615 -1.30582 0.326137
                CHANNELS 6 Xposition Yposition Zposition Zrotation Xrotation Yrotation
                JOINT Character1_RightHandThumb1
                {
                  OFFSET -0.707168 -0.296376 0.777353
                  CHANNELS 6 Xposition Yposition Zposition Zrotation Xrotation Yrotation
                  JOINT Character1_RightHandThumb2
                  {
                    OFFSET -0.248522 -0.159517 0.331579
                    CHANNELS 6 Xposition Yposition Zposition Zrotation Xrotation Yrotation
                    JOINT Character1_RightHandThumb3
                    {
                      OFFSET -0.259194 -0.254063 0.227961
                      CHANNELS 6 Xposition Yposition Zposition Zrotation Xrotation Yrotation
                      JOINT Character1_RightHandThumb4
                      {
                        OFFSET -0.226668 -0.258211 0.206782
                        CHANNELS 6 Xposition Yposition Zposition Zrotation Xrotation Yrotation
                        End Site
                        {
                          OFFSET 0 0 0
                        }
                      }
                    }
                  }
                }
                JOINT Character1_RightHandIndex1
                {
                  OFFSET -1.48444 -0.35419 0.611987
                  CHANNELS 6 Xposition Yposition Zposition Zrotation Xrotation Yrotation
                  JOINT Character1_RightHandIndex2
                  {
                    OFFSET -0.504725 -0.451987 0.0493909
                    CHANNELS 6 Xposition Yposition Zposition Zrotation Xrotation Yrotation
                    JOINT Character1_RightHandIndex3
                    {
                      OFFSET -0.296442 -0.265513 0.0299127
                      CHANNELS 6 Xposition Yposition Zposition Zrotation Xrotation Yrotation
                      JOINT Character1_RightHandIndex4
                      {
                        OFFSET -0.197651 -0.21728 0.0208599
                        CHANNELS 6 Xposition Yposition Zposition Zrotation Xrotation Yrotation
                        End Site
                        {
                          OFFSET 0 0 0
                        }
                      }
                    }
                  }
                }
                JOINT Character1_RightHandMiddle1
                {
                  OFFSET -1.48537 -0.31703 0.212679
                  CHANNELS 6 Xposition Yposition Zposition Zrotation Xrotation Yrotation
                  JOINT Character1_RightHandMiddle2
                  {
                    OFFSET -0.67206 -0.620937 0.0176346
                    CHANNELS 6 Xposition Yposition Zposition Zrotation Xrotation Yrotation
                    JOINT Character1_RightHandMiddle3
                    {
                      OFFSET -0.264031 -0.32112 0.00884265
                      CHANNELS 6 Xposition Yposition Zposition Zrotation Xrotation Yrotation
                      JOINT Character1_RightHandMiddle4
                      {
                        OFFSET -0.180854 -0.241265 0.0065841
                        CHANNELS 6 Xposition Yposition Zposition Zrotation Xrotation Yrotation
                        End Site
                        {
                          OFFSET 0 0 0
                        }
                      }
                    }
                  }
                }
                JOINT Character1_RightHandRing1
                {
                  OFFSET -1.48599 -0.345214 -0.172738
                  CHANNELS 6 Xposition Yposition Zposition Zrotation Xrotation Yrotation
                  JOINT Character1_RightHandRing2
                  {
                    OFFSET -0.522198 -0.611355 0.0123873
                    CHANNELS 6 Xposition Yposition Zposition Zrotation Xrotation Yrotation
                    JOINT Character1_RightHandRing3
                    {
                      OFFSET -0.273489 -0.359549 0.00739122
                      CHANNELS 6 Xposition Yposition Zposition Zrotation Xrotation Yrotation
                      JOINT Character1_RightHandRing4
                      {
                        OFFSET -0.175076 -0.230165 0.00473141
                        CHANNELS 6 Xposition Yposition Zposition Zrotation Xrotation Yrotation
                        End Site
                        {
                          OFFSET 0 0 0
                        }
                      }
                    }
                  }
                }
                JOINT Character1_RightHandPinky1
                {
                  OFFSET -1.45006 -0.450851 -0.482263
                  CHANNELS 6 Xposition Yposition Zposition Zrotation Xrotation Yrotation
                  JOINT Character1_RightHandPinky2
                  {
                    OFFSET -0.289758 -0.353119 -0.0298239
                    CHANNELS 6 Xposition Yposition Zposition Zrotation Xrotation Yrotation
                    JOINT Character1_RightHandPinky3
                    {
                      OFFSET -0.271224 -0.36969 -0.0280318
                      CHANNELS 6 Xposition Yposition Zposition Zrotation Xrotation Yrotation
                      JOINT Character1_RightHandPinky4
                      {
                        OFFSET -0.192971 -0.263025 -0.0199442
                        CHANNELS 6 Xposition Yposition Zposition Zrotation Xrotation Yrotation
                        End Site
                        {
                          OFFSET 0 0 0
                        }
                      }
                    }
                  }
                }
              }
            }
          }
        }
        JOINT Character1_Neck
        {
          OFFSET 0 2.01813 0
          CHANNELS 6 Xposition Yposition Zposition Zrotation Xrotation Yrotation
          JOINT Character1_Head
          {
            OFFSET 0 3.0075 0
            CHANNELS 6 Xposition Yposition Zposition Zrotation Xrotation Yrotation
            End Site
            {
              OFFSET 0 0 0
            }
          }
        }
      }
    }
  }
}
MOTION
Frames:	2
Frame Time:	0.0166667
-0.000132313 14.9228 0.0948992 -0.99205 -1.87086 -2.74684 1.33984 -0.942851 -1.01246e-009 1.24898 -11.2456 -1.24996 1.03111 -5.48941 0.514162 -0.325573 17.6398 3.89629 0.584472 -7.37542 -1.61389 -0.624273 -0.879117 0.0622786 0.308452 -0.815751 3.43202 3.01144e-016 3.80791e-007 -2.58926e-010 -1.33984 -0.942851 1.58672e-009 1.09852 -0.891372 0.0923571 -1.03111 -5.48941 0.514162 -4.12768 4.03359 -15.1197 -0.584472 -7.37543 -1.61389 2.77475 2.69828 -0.883626 -0.308452 -0.815752 3.43202 -1.48416e-013 1.50117e-007 5.61914e-005 2.87455e-009 1.05263 2.68569e-007 -0.319102 -0.996438 2.09671 8.7824e-010 2.01813 -7.69326e-008 -1.36512 -0.197736 -1.31788 -1.3442e-009 2.01813 -7.75521e-008 -0.0368927 -0.352585 -1.28839 1.05262 2.25701 7.19793e-008 -0.557038 -0.0662852 -0.059794 1.59242 -0.163555 -0.172858 -36.2313 7.45126 -6.53123 4.24535 -1.87804 -0.325331 -24.0056 -33.1575 -55.5819 2.98615 -1.30582 0.326122 -9.40511 4.72114 -17.1437 0.707167 -0.296377 0.777354 3.85348e-005 -7.95886e-005 6.23807e-005 0.248521 -0.159516 0.331578 -5.90185e-005 7.12343e-005 -3.34985e-005 0.259195 -0.254061 0.227961 4.0075e-005 -1.30796e-005 6.38736e-006 0.226667 -0.258214 0.206782 -4.53014e-005 3.55377e-005 8.84988e-006 1.48444 -0.354189 0.611988 3.85348e-005 -7.95886e-005 6.23807e-005 0.504724 -0.451988 0.0493905 -5.90185e-005 7.12343e-005 -3.34985e-005 0.296442 -0.265513 0.0299122 4.0075e-005 -1.30796e-005 6.38736e-006 0.197651 -0.217277 0.0208596 -4.53014e-005 3.55377e-005 8.84988e-006 1.48537 -0.317032 0.212679 3.85348e-005 -7.95886e-005 6.23807e-005 0.672059 -0.620936 0.0176339 -5.90185e-005 7.12343e-005 -3.34985e-005 0.264032 -0.321119 0.00884254 4.0075e-005 -1.30796e-005 6.38736e-006 0.180854 -0.241265 0.00658288 -4.53014e-005 3.55377e-005 8.84988e-006 1.48599 -0.345214 -0.172737 3.85348e-005 -7.95886e-005 6.23807e-005 0.522197 -0.611355 0.0123873 -5.90185e-005 7.12343e-005 -3.34985e-005 0.273491 -0.359548 0.00739067 4.0075e-005 -1.30796e-005 6.38736e-006 0.175076 -0.230164 0.00473141 -4.53014e-005 3.55377e-005 8.84988e-006 1.45006 -0.450851 -0.482263 3.85348e-005 -7.95886e-005 6.23807e-005 0.289756 -0.353117 -0.0298241 -5.90185e-005 7.12343e-005 -3.34985e-005 0.271225 -0.36969 -0.0280322 4.0075e-005 -1.30796e-005 6.38736e-006 0.192971 -0.263027 -0.0199438 -4.53014e-005 3.55377e-005 8.84988e-006 -1.05262 2.257 1.3028e-007 -1.54581e-007 7.26005e-009 -3.7291e-005 -1.59242 -0.163552 -0.172858 20.796 -12.5396 51.4718 -4.24528 -1.87817 -0.325593 0.379288 -25.2178 41.008 -2.98615 -1.30583 0.326122 0.489368 -57.0918 -19.1995 -0.707168 -0.296375 0.777353 24.5259 9.16698 26.847 -0.248521 -0.159517 0.331579 -3.33965 4.32336 -7.30442 -0.259194 -0.254062 0.227961 -6.63748 17.3287 -21.0559 -0.226667 -0.258211 0.206783 0.000136686 -5.56258e-005 -4.51386e-005 -1.48444 -0.35419 0.611986 19.0783 -9.26329 9.88535 -0.504725 -0.451986 0.0493918 65.0803 4.5712 0.749312 -0.296442 -0.265513 0.0299125 27.8953 1.66208 1.07953 -0.197651 -0.21728 0.0208596 -7.94576e-005 -2.5252e-005 -1.86792e-005 -1.48537 -0.31703 0.212678 27.663 -8.7958 8.84983 -0.67206 -0.620937 0.0176362 66.2221 1.26976 0.399091 -0.264031 -0.32112 0.00884157 20.9659 0.315392 0.317279 -0.180854 -0.241265 0.00658367 9.22782e-006 2.27281e-005 -1.14749e-006 -1.48599 -0.345214 -0.172739 29.7785 -9.00761 8.13807 -0.522198 -0.611355 0.0123884 58.0677 0.832856 0.365428 -0.273489 -0.359549 0.00739084 25.4684 0.29859 0.279891 -0.175076 -0.230165 0.0047313 -6.99533e-005 -0.000122757 4.14588e-006 -1.45006 -0.450852 -0.482264 27.9627 -7.22418 5.61899 -0.289757 -0.353119 -0.0298241 38.32 -1.89413 -1.30582 -0.271225 -0.36969 -0.0280315 36.3915 -1.88862 -1.19046 -0.192971 -0.263025 -0.0199441 2.27296e-006 2.38067e-005 -4.88769e-007 -1.74796e-009 2.01812 1.86264e-007 3.30018e-005 -2.05727e-009 6.80417 -1.07456e-008 3.0075 1.05006e-007 -2.24214e-005 -6.80812e-010 6.80416 
-0.00422515 14.8984 0.354722 -1.00415 -1.84716 -2.43777 1.33984 -0.942851 -9.28604e-010 1.10975 -8.76115 -0.912273 1.03111 -5.48941 0.514162 0.00595068 15.0069 3.26558 0.584472 -7.37543 -1.61389 -0.60796 -1.65 -0.00650799 0.308452 -0.815751 3.43202 5.32039e-017 3.92026e-007 -2.38504e-010 -1.33984 -0.942849 1.46942e-009 1.13525 0.351151 -0.0765818 -1.03111 -5.48941 0.514162 -3.53147 4.00841 -12.3105 -0.584472 -7.37542 -1.61389 2.18639 1.89415 -0.663319 -0.308452 -0.815752 3.43202 -1.37579e-013 1.31705e-007 5.89863e-005 2.10436e-009 1.05261 2.81412e-007 -0.30762 -1.18476 2.52657 3.10435e-011 2.01813 -7.70127e-008 -1.42867 0.574776 0.1651 -1.68555e-009 2.01813 -7.75467e-008 0.0265492 0.430983 0.190229 1.05263 2.257 7.17427e-008 -0.557038 -0.0662852 -0.0597914 1.59242 -0.163555 -0.172858 -40.9342 9.11806 -2.2511 4.24536 -1.87803 -0.325374 -24.4073 -32.3877 -57.166 2.98615 -1.30582 0.326121 -6.66419 3.13125 -15.0178 0.707166 -0.296376 0.777354 4.77926e-005 -8.83072e-005 6.34848e-005 0.248521 -0.159516 0.331579 -7.27079e-005 7.62416e-005 -3.61501e-005 0.259195 -0.25406 0.227962 4.01049e-005 -1.27055e-005 5.69716e-006 0.226666 -0.258214 0.206782 -5.88347e-005 3.60889e-005 9.17643e-006 1.48444 -0.354189 0.611987 4.77926e-005 -8.83072e-005 6.34848e-005 0.504724 -0.451988 0.0493919 -7.27079e-005 7.62416e-005 -3.61501e-005 0.296442 -0.265513 0.0299122 4.01049e-005 -1.27055e-005 5.69716e-006 0.197651 -0.217278 0.0208595 -5.88347e-005 3.60889e-005 9.17643e-006 1.48537 -0.317032 0.212679 4.77926e-005 -8.83072e-005 6.34848e-005 0.672059 -0.620935 0.0176343 -7.27079e-005 7.62416e-005 -3.61501e-005 0.264032 -0.321119 0.00884255 4.01049e-005 -1.27055e-005 5.69716e-006 0.180854 -0.241264 0.00658462 -5.88347e-005 3.60889e-005 9.17643e-006 1.48599 -0.345214 -0.172738 4.77926e-005 -8.83072e-005 6.34848e-005 0.522197 -0.611355 0.0123871 -7.27079e-005 7.62416e-005 -3.61501e-005 0.273491 -0.359548 0.0073907 4.01049e-005 -1.27055e-005 5.69716e-006 0.175076 -0.230164 0.00473136 -5.88347e-005 3.60889e-005 9.17643e-006 1.45006 -0.450851 -0.482263 4.77926e-005 -8.83072e-005 6.34848e-005 0.289755 -0.353117 -0.0298239 -7.27079e-005 7.62416e-005 -3.61501e-005 0.271225 -0.36969 -0.028032 4.01049e-005 -1.27055e-005 5.69716e-006 0.192971 -0.263027 -0.0199436 -5.88347e-005 3.60889e-005 9.17643e-006 -1.05263 2.257 1.30252e-007 -1.46597e-007 6.49434e-009 -3.88192e-005 -1.59242 -0.163552 -0.172859 21.7302 -11.7352 51.428 -4.24529 -1.87815 -0.325607 0.957145 -18.9721 38.8091 -2.98616 -1.30579 0.326151 -2.37451 -58.6267 -23.6551 -0.707167 -0.296375 0.777353 24.5367 9.16271 26.8599 -0.248521 -0.159518 0.331579 -3.34278 4.32802 -7.31185 -0.259194 -0.254062 0.227961 -6.63945 17.3338 -21.0627 -0.226668 -0.258211 0.206782 0.00013936 -2.61765e-005 -4.57861e-005 -1.48444 -0.35419 0.611986 19.0782 -9.26328 9.88535 -0.504724 -0.451986 0.0493915 65.0803 4.5712 0.749267 -0.296442 -0.265513 0.0299124 27.8953 1.66208 1.07952 -0.197651 -0.217279 0.020861 -8.16512e-005 -3.40387e-005 -1.97783e-005 -1.48537 -0.31703 0.212677 27.663 -8.79582 8.84981 -0.672059 -0.620936 0.0176344 66.2221 1.26971 0.399028 -0.264031 -0.321119 0.00884333 20.9659 0.315442 0.317269 -0.180854 -0.241265 0.00658284 7.59403e-006 -2.37635e-005 -1.28727e-006 -1.48599 -0.345214 -0.172739 29.7785 -9.00763 8.13804 -0.522197 -0.611354 0.0123886 58.0677 0.832809 0.365388 -0.273489 -0.359549 0.00739076 25.4685 0.29863 0.279863 -0.175076 -0.230165 0.00473084 -8.37321e-005 -0.000128126 4.0456e-006 -1.45006 -0.450851 -0.482262 27.9627 -7.22419 5.61897 -0.289757 -0.353119 -0.0298247 38.32 -1.89415 -1.30586 -0.271225 -0.36969 -0.0280311 36.3915 -1.88861 -1.1905 -0.192971 -0.263025 -0.0199446 2.50148e-006 2.33437e-005 -4.4742e-007 -8.64796e-010 2.01813 1.86323e-007 3.58049e-005 -2.52982e-009 5.23425 -1.48398e-008 3.00749 -3.95079e-007 -2.43352e-005 -8.21184e-010 5.23425 
